<svg width="48" height="48" viewBox="0 0 48 48" fill="none" xmlns="http://www.w3.org/2000/svg">
<path d="M37.0246 36.1652H47.36M37.0246 36.1652V6.54541H8.8374C8.8374 6.54541 3.19995 16.0661 3.19995 32.1793V36.1652H15.4144M37.0246 36.1652H24.8102M15.4144 36.1652C15.4144 37.568 15.9094 38.9134 16.7904 39.9053C17.6714 40.8972 18.8663 41.4545 20.1123 41.4545C21.3582 41.4545 22.5532 40.8972 23.4342 39.9053C24.3152 38.9134 24.8102 37.568 24.8102 36.1652M15.4144 36.1652C15.4144 34.7624 15.9094 33.4171 16.7904 32.4252C17.6714 31.4332 18.8663 30.876 20.1123 30.876C21.3582 30.876 22.5532 31.4332 23.4342 32.4252C24.3152 33.4171 24.8102 34.7624 24.8102 36.1652M41.7225 40.3967H47.36M21.0519 12.8925V21.3553M9.77697 21.3553C10.2917 18.4678 11.0286 15.6362 11.9793 12.8925H31.3872V21.3553H9.77697Z" stroke="#1E196A" stroke-width="4"/>
</svg>
