<svg width="32" height="41" viewBox="0 0 32 41" fill="none" xmlns="http://www.w3.org/2000/svg">
<path fill-rule="evenodd" clip-rule="evenodd" d="M14.5594 40.1281L14.5687 40.1375L14.575 40.1438C14.9851 40.4545 15.4855 40.6227 16 40.6227C16.5145 40.6227 17.0149 40.4545 17.425 40.1438L17.4313 40.1375L17.4406 40.1281L17.4781 40.1C17.6793 39.9447 17.8772 39.7853 18.0719 39.6219C20.4018 37.6577 22.5424 35.4794 24.4656 33.1156C27.9062 28.8594 31.625 22.6719 31.625 15.625C31.625 11.481 29.9788 7.50671 27.0485 4.57646C24.1183 1.6462 20.144 0 16 0C11.856 0 7.88171 1.6462 4.95146 4.57646C2.0212 7.50671 0.375 11.481 0.375 15.625C0.375 22.6719 4.09375 28.8594 7.5375 33.1156C9.46071 35.4794 11.6013 37.6577 13.9312 39.6219L14.5219 40.1L14.5594 40.1281ZM16 20.3125C16.6156 20.3125 17.2251 20.1913 17.7938 19.9557C18.3625 19.7201 18.8793 19.3748 19.3146 18.9396C19.7498 18.5043 20.0951 17.9875 20.3307 17.4188C20.5663 16.8501 20.6875 16.2406 20.6875 15.625C20.6875 15.0094 20.5663 14.3999 20.3307 13.8312C20.0951 13.2625 19.7498 12.7457 19.3146 12.3104C18.8793 11.8752 18.3625 11.5299 17.7938 11.2943C17.2251 11.0587 16.6156 10.9375 16 10.9375C14.7568 10.9375 13.5645 11.4314 12.6854 12.3104C11.8064 13.1895 11.3125 14.3818 11.3125 15.625C11.3125 16.8682 11.8064 18.0605 12.6854 18.9396C13.5645 19.8186 14.7568 20.3125 16 20.3125Z" fill="#1E196A"/>
</svg>
