<svg width="25" height="24" viewBox="0 0 25 24" fill="none" xmlns="http://www.w3.org/2000/svg">
<path fill-rule="evenodd" clip-rule="evenodd" d="M11.7797 21.7527L11.7844 21.7574L11.7875 21.7605C11.9925 21.9159 12.2427 22 12.5 22C12.7573 22 13.0075 21.9159 13.2125 21.7605L13.2156 21.7574L13.2203 21.7527L13.2391 21.7387C13.3396 21.661 13.4386 21.5813 13.5359 21.4996C14.7009 20.5175 15.7712 19.4284 16.7328 18.2465C18.4531 16.1183 20.3125 13.0246 20.3125 9.50116C20.3125 7.42916 19.4894 5.44202 18.0243 3.97689C16.5591 2.51176 14.572 1.68866 12.5 1.68866C10.428 1.68866 8.44086 2.51176 6.97573 3.97689C5.5106 5.44202 4.6875 7.42916 4.6875 9.50116C4.6875 13.0246 6.54687 16.1183 8.26875 18.2465C9.23036 19.4284 10.3007 20.5175 11.4656 21.4996L11.7609 21.7387L11.7797 21.7527Z" fill="#1E196A"/>
<mask id="mask0_110_471" style="mask-type:luminance" maskUnits="userSpaceOnUse" x="9" y="6" width="7" height="7">
<path d="M11.904 6.09535C11.6921 6.11654 9.68975 6.34961 9.52024 6.80517C9.49905 6.86873 9.48846 6.9323 9.66856 7.17597C9.70035 7.21835 10.1559 7.80103 10.7704 8.18243H10.8233C10.3678 7.83282 10.1029 7.4832 10.0394 7.27132C10.0394 7.25013 10.0288 7.23954 10.0288 7.21835C10.0288 7.13359 10.05 7.03824 10.2089 6.98527C10.3784 6.9323 11.1941 6.85814 12.0417 6.92171C12.9104 6.98527 13.5037 7.123 13.705 7.3137C13.4401 7.46202 10.4208 9.28424 9.5944 9.85633C8.51378 10.5979 9.18122 11.5196 9.46727 11.7633C9.82748 12.0705 10.3572 12.2718 10.8869 12.4202C11.5014 12.5897 12.0947 12.6744 12.3807 12.7168C12.8363 12.791 15.6861 13.2889 15.9086 12.6003C16.0252 12.2189 15.3895 11.7739 15.22 11.6574C15.1458 11.6044 14.1076 10.8734 13.705 10.5979H13.6414C13.9487 10.8416 14.5631 11.3819 14.775 11.562C15.0187 11.7633 15.4213 12.2401 15.1776 12.3354C15.167 12.3354 15.167 12.3354 15.1564 12.346C14.881 12.399 14.2983 12.2718 13.5355 11.9752C12.6562 11.6362 11.6179 11.1171 11.3531 10.6721C11.3531 10.6721 14.0228 9.01938 15.1034 8.28837C16.4807 7.35607 15.9404 6.59328 15.6332 6.3814C15.2518 6.11654 14.5843 6.02119 13.8957 6C13.8851 6 13.8851 6 13.8851 6H13.8745C13.7474 6 13.6414 6 13.5249 6C12.8786 6 12.2642 6.05297 11.904 6.09535Z" fill="white"/>
</mask>
<g mask="url(#mask0_110_471)">
<path d="M10.5056 2.54626L19.6379 7.82224L14.4891 16.7427L5.34619 11.4667L10.5056 2.54626Z" fill="url(#paint0_linear_110_471)"/>
</g>
<mask id="mask1_110_471" style="mask-type:luminance" maskUnits="userSpaceOnUse" x="13" y="10" width="3" height="3">
<path d="M13.6414 10.6085C13.9486 10.8522 14.5631 11.3925 14.7749 11.5726C15.0186 11.7739 15.4212 12.2506 15.1775 12.346C15.1669 12.346 15.1669 12.346 15.1563 12.3566C15.2517 12.3354 15.3153 12.3142 15.347 12.2824C15.347 12.2824 15.5483 12.1341 15.3682 11.8375C15.3364 11.7951 15.2305 11.668 15.2305 11.668C15.1563 11.615 14.1181 10.884 13.7155 10.6085H13.6414Z" fill="white"/>
</mask>
<g mask="url(#mask1_110_471)">
<path d="M15.5589 10.6085H13.6414V12.3566H15.5589V10.6085Z" fill="url(#paint1_linear_110_471)"/>
</g>
<mask id="mask2_110_471" style="mask-type:luminance" maskUnits="userSpaceOnUse" x="9" y="6" width="5" height="3">
<path d="M11.9039 6.09535C11.692 6.11654 9.68967 6.34961 9.52016 6.80517C9.49897 6.86873 9.48837 6.9323 9.66848 7.17597C9.70026 7.21835 10.1558 7.80103 10.7703 8.18243H10.8233C10.3677 7.83282 10.1028 7.48321 10.0393 7.27132C10.0393 7.25013 10.0287 7.23954 10.0287 7.21835C10.0181 7.09122 10.0499 6.86873 10.6538 6.57209C11.4589 6.16951 13.4718 6.01059 13.8744 6.01059C13.7473 6 13.6413 6 13.5248 6C12.8786 6 12.2641 6.05297 11.9039 6.09535Z" fill="white"/>
</mask>
<g mask="url(#mask2_110_471)">
<path d="M13.8746 6H9.48853V8.18243H13.8746V6Z" fill="url(#paint2_linear_110_471)"/>
</g>
<mask id="mask3_110_471" style="mask-type:luminance" maskUnits="userSpaceOnUse" x="9" y="6" width="7" height="7">
<path d="M14.4996 6.51915C14.5314 6.81579 14.0228 7.11243 13.705 7.31372C13.4401 7.46204 10.4208 9.28427 9.5944 9.85636C8.51378 10.598 9.18122 11.5197 9.46727 11.7633C9.83807 12.0706 10.3678 12.2719 10.8869 12.4202C10.6221 12.346 10.4102 12.1871 10.3148 11.9964C10.1877 11.7633 10.1771 11.4561 10.675 11.1171C10.7704 11.0535 11.0246 10.8946 11.3531 10.6827C11.3531 10.6827 14.0228 9.03 15.1034 8.29899C16.4807 7.36669 15.9404 6.6039 15.6332 6.39202C15.2518 6.12716 14.5843 6.03181 13.8957 6.01062C13.9805 6.01062 14.4572 6.07419 14.4996 6.51915Z" fill="white"/>
</mask>
<g mask="url(#mask3_110_471)">
<path d="M16.4807 6.01062H8.50317V12.4202H16.4807V6.01062Z" fill="url(#paint3_linear_110_471)"/>
</g>
<mask id="mask4_110_471" style="mask-type:luminance" maskUnits="userSpaceOnUse" x="10" y="11" width="6" height="2">
<path d="M15.3684 11.8375C15.5485 12.1341 15.3472 12.2824 15.3472 12.2824C15.3154 12.3142 15.2518 12.3354 15.1565 12.3566C15.1459 12.3566 15.1353 12.3672 15.1141 12.3672C14.5102 12.4625 11.1094 12.4837 10.887 12.4308C11.5014 12.6003 12.0947 12.685 12.3808 12.7274C12.8363 12.8016 15.6862 13.2995 15.9087 12.6109C16.0252 12.2295 15.3895 11.7845 15.22 11.668C15.2306 11.668 15.3366 11.7951 15.3684 11.8375Z" fill="white"/>
</mask>
<g mask="url(#mask4_110_471)">
<path d="M16.0358 11.668H10.887V13.2995H16.0358V11.668Z" fill="url(#paint4_linear_110_471)"/>
</g>
<defs>
<linearGradient id="paint0_linear_110_471" x1="9.02982" y1="7.64547" x2="14.9537" y2="11.0656" gradientUnits="userSpaceOnUse">
<stop stop-color="#FFDD00"/>
<stop offset="0.411" stop-color="#F37021"/>
<stop offset="0.475" stop-color="#F4761F"/>
<stop offset="0.5596" stop-color="#F5861A"/>
<stop offset="0.6556" stop-color="#F8A212"/>
<stop offset="0.7593" stop-color="#FDC806"/>
<stop offset="0.8098" stop-color="#FFDD00"/>
<stop offset="1" stop-color="#FFDD00"/>
</linearGradient>
<linearGradient id="paint1_linear_110_471" x1="13.6409" y1="11.481" x2="14.7271" y2="11.481" gradientUnits="userSpaceOnUse">
<stop stop-color="#FBAD18"/>
<stop offset="0.5569" stop-color="#F47520"/>
<stop offset="0.6012" stop-color="#F37021"/>
<stop offset="1" stop-color="#F37021"/>
</linearGradient>
<linearGradient id="paint2_linear_110_471" x1="9.5065" y1="7.09265" x2="12.1826" y2="7.09265" gradientUnits="userSpaceOnUse">
<stop stop-color="#FFDD00"/>
<stop offset="0.1329" stop-color="#FCC308"/>
<stop offset="0.4581" stop-color="#F6871A"/>
<stop offset="0.6135" stop-color="#F37021"/>
<stop offset="1" stop-color="#F37021"/>
</linearGradient>
<linearGradient id="paint3_linear_110_471" x1="8.99437" y1="9.21454" x2="15.9993" y2="9.21454" gradientUnits="userSpaceOnUse">
<stop stop-color="#F37021"/>
<stop offset="0.2329" stop-color="#F9A511"/>
<stop offset="0.4353" stop-color="#FDCE05"/>
<stop offset="0.5399" stop-color="#FFDD00"/>
<stop offset="0.7021" stop-color="#FBBA0B"/>
<stop offset="1" stop-color="#F37021"/>
</linearGradient>
<linearGradient id="paint4_linear_110_471" x1="10.8875" y1="12.4785" x2="15.9271" y2="12.4785" gradientUnits="userSpaceOnUse">
<stop stop-color="#F37021"/>
<stop offset="0.2088" stop-color="#F5811C"/>
<stop offset="0.6226" stop-color="#FAAF0E"/>
<stop offset="1" stop-color="#FFDD00"/>
</linearGradient>
</defs>
</svg>
