<svg width="121" height="40" viewBox="0 0 121 40" fill="none" xmlns="http://www.w3.org/2000/svg">
<rect x="1.11401" y="0.5" width="119" height="39" rx="5.5" fill="black"/>
<rect x="1.11401" y="0.5" width="119" height="39" rx="5.5" stroke="#A6A6A6"/>
<path d="M25.3185 20.7632C25.3307 19.8433 25.5809 18.9414 26.0461 18.1413C26.5112 17.3412 27.1761 16.6689 27.9788 16.1871C27.4689 15.4761 26.7961 14.8909 26.014 14.4781C25.2318 14.0653 24.3619 13.8362 23.4732 13.8091C21.5776 13.6148 19.7398 14.9165 18.7738 14.9165C17.7891 14.9165 16.3018 13.8284 14.7002 13.8605C13.6642 13.8932 12.6546 14.1873 11.7697 14.7142C10.8848 15.2411 10.1548 15.9828 9.65075 16.867C7.46753 20.5574 9.09602 25.981 11.1874 28.9641C12.2338 30.4248 13.4567 32.0565 15.0568 31.9986C16.6226 31.9352 17.2075 31.0238 19.0975 31.0238C20.9701 31.0238 21.5188 31.9986 23.1514 31.9618C24.8316 31.9352 25.8902 30.4946 26.8999 29.0201C27.6517 27.9793 28.2302 26.8289 28.614 25.6117C27.6379 25.2086 26.8048 24.5339 26.2188 23.6717C25.6328 22.8095 25.3197 21.798 25.3185 20.7632Z" fill="white"/>
<path d="M22.2348 11.8471C23.1509 10.7734 23.6023 9.39335 23.493 8C22.0934 8.14352 20.8005 8.7966 19.872 9.82911C19.418 10.3335 19.0703 10.9203 18.8488 11.556C18.6272 12.1917 18.5362 12.8638 18.5809 13.5338C19.2809 13.5408 19.9735 13.3927 20.6064 13.1005C21.2394 12.8084 21.7961 12.3798 22.2348 11.8471Z" fill="white"/>
<path d="M37.405 8.50146H39.4749C41.2634 8.50146 42.1335 9.56494 42.1335 11.4941C42.1335 13.4233 41.2546 14.5 39.4749 14.5H37.405V8.50146ZM38.4026 9.34082V13.6606H39.365C40.5515 13.6606 41.1096 12.9443 41.1096 11.5073C41.1096 10.0615 40.5471 9.34082 39.365 9.34082H38.4026ZM45.2888 9.77588C46.5017 9.77588 47.3499 10.5625 47.3499 11.8677V12.4697C47.3499 13.8188 46.5017 14.5791 45.2888 14.5791C44.0583 14.5791 43.219 13.8276 43.219 12.4741V11.8721C43.219 10.6021 44.0715 9.77588 45.2888 9.77588ZM45.2932 10.5625C44.5989 10.5625 44.2034 11.1426 44.2034 11.9204V12.439C44.2034 13.2168 44.5725 13.7925 45.2932 13.7925C46.0051 13.7925 46.3699 13.2212 46.3699 12.439V11.9204C46.3699 11.1426 45.9875 10.5625 45.2932 10.5625ZM54.5129 9.85498L53.2913 14.5H52.2981L51.3269 11.0723H51.3005L50.3469 14.5H49.3494L48.075 9.85498H49.1252L49.8723 13.397H49.9163L50.8523 9.85498H51.7708L52.7332 13.397H52.7771L53.5374 9.85498H54.5129ZM55.4797 14.5V9.85498H56.4377V10.6899H56.4861C56.6047 10.3252 56.9431 9.78467 57.8835 9.78467C58.8196 9.78467 59.448 10.3032 59.448 11.3623V14.5H58.4724V11.6479C58.4724 10.9404 58.1033 10.6152 57.554 10.6152C56.8333 10.6152 56.4553 11.1689 56.4553 11.9204V14.5H55.4797ZM60.9246 14.5V8.18506H61.9001V14.5H60.9246ZM65.2488 9.77588C66.4617 9.77588 67.3098 10.5625 67.3098 11.8677V12.4697C67.3098 13.8188 66.4617 14.5791 65.2488 14.5791C64.0183 14.5791 63.179 13.8276 63.179 12.4741V11.8721C63.179 10.6021 64.0315 9.77588 65.2488 9.77588ZM65.2532 10.5625C64.5588 10.5625 64.1633 11.1426 64.1633 11.9204V12.439C64.1633 13.2168 64.5325 13.7925 65.2532 13.7925C65.9651 13.7925 66.3298 13.2212 66.3298 12.439V11.9204C66.3298 11.1426 65.9475 10.5625 65.2532 10.5625ZM69.8367 14.5703C68.9358 14.5703 68.3162 14.0166 68.3162 13.1509C68.3162 12.3291 68.8875 11.7754 69.9597 11.7754H71.1331V11.3403C71.1331 10.8086 70.7947 10.5581 70.2585 10.5581C69.7312 10.5581 69.4939 10.7778 69.4192 11.0854H68.4919C68.5491 10.3076 69.1335 9.78467 70.2893 9.78467C71.2825 9.78467 72.1042 10.1978 72.1042 11.3535V14.5H71.177V13.8979H71.1331C70.9265 14.2539 70.5222 14.5703 69.8367 14.5703ZM70.1399 13.8145C70.6936 13.8145 71.1331 13.4365 71.1331 12.9312V12.4302H70.1135C69.5466 12.4302 69.2961 12.7158 69.2961 13.1025C69.2961 13.5859 69.7004 13.8145 70.1399 13.8145ZM75.1101 9.79346C75.7649 9.79346 76.2659 10.0835 76.446 10.5537H76.4944V8.18506H77.47V14.5H76.5208V13.7573H76.4724C76.3318 14.2275 75.7737 14.5615 75.0969 14.5615C74.0291 14.5615 73.3347 13.8013 73.3347 12.5752V11.7798C73.3347 10.5537 74.0422 9.79346 75.1101 9.79346ZM75.3826 10.5933C74.7322 10.5933 74.3279 11.0767 74.3279 11.9204V12.4302C74.3279 13.2783 74.7366 13.7617 75.4045 13.7617C76.0637 13.7617 76.4944 13.2827 76.4944 12.4917V11.7886C76.4944 11.0723 76.0242 10.5933 75.3826 10.5933ZM82.8269 9.77588C84.0398 9.77588 84.8879 10.5625 84.8879 11.8677V12.4697C84.8879 13.8188 84.0398 14.5791 82.8269 14.5791C81.5964 14.5791 80.7571 13.8276 80.7571 12.4741V11.8721C80.7571 10.6021 81.6096 9.77588 82.8269 9.77588ZM82.8313 10.5625C82.137 10.5625 81.7415 11.1426 81.7415 11.9204V12.439C81.7415 13.2168 82.1106 13.7925 82.8313 13.7925C83.5432 13.7925 83.908 13.2212 83.908 12.439V11.9204C83.908 11.1426 83.5256 10.5625 82.8313 10.5625ZM86.1448 14.5V9.85498H87.1028V10.6899H87.1511C87.2698 10.3252 87.6082 9.78467 88.5486 9.78467C89.4846 9.78467 90.113 10.3032 90.113 11.3623V14.5H89.1375V11.6479C89.1375 10.9404 88.7683 10.6152 88.219 10.6152C87.4983 10.6152 87.1204 11.1689 87.1204 11.9204V14.5H86.1448ZM93.8879 9.88574V8.72559H94.8416V9.88574H95.8831V10.6504H94.8416V13.1157C94.8416 13.6211 95.0305 13.7617 95.5535 13.7617C95.6853 13.7617 95.8611 13.7529 95.9358 13.7441V14.4912C95.8567 14.5044 95.5315 14.5308 95.3118 14.5308C94.1824 14.5308 93.8748 14.1265 93.8748 13.1948V10.6504H93.1672V9.88574H93.8879ZM97.1135 14.5V8.18506H98.0847V10.6899H98.1331C98.2341 10.3604 98.6121 9.78467 99.5437 9.78467C100.449 9.78467 101.095 10.3076 101.095 11.3667V14.5H100.124V11.6523C100.124 10.9448 99.7327 10.6152 99.179 10.6152C98.4802 10.6152 98.0847 11.1646 98.0847 11.9204V14.5H97.1135ZM104.369 14.5791C103.103 14.5791 102.317 13.8013 102.317 12.4917V11.8633C102.317 10.5449 103.178 9.77588 104.312 9.77588C105.476 9.77588 106.298 10.5845 106.298 11.8633V12.4082H103.283V12.6367C103.283 13.3047 103.679 13.7969 104.365 13.7969C104.874 13.7969 105.226 13.5552 105.292 13.2651H106.245C106.188 13.8013 105.621 14.5791 104.369 14.5791ZM103.283 11.771H105.344V11.7095C105.344 11.0107 104.936 10.5449 104.316 10.5449C103.697 10.5449 103.283 11.0107 103.283 11.7095V11.771Z" fill="white"/>
<path d="M38.8201 30.5H36.7898L40.9207 18.5029H43.1531L47.2751 30.5H45.1658L44.1023 27.1777H39.8923L38.8201 30.5ZM42.0457 20.5771H41.9666L40.3406 25.6484H43.6541L42.0457 20.5771ZM52.8784 30.6318C51.6743 30.6318 50.7602 30.0605 50.268 29.208H50.1977V33.585H48.2466V21.21H50.145V22.5723H50.2153C50.7251 21.6846 51.6743 21.0869 52.9223 21.0869C55.0053 21.0869 56.4907 22.6602 56.4907 25.4375V26.2637C56.4907 29.0234 55.0229 30.6318 52.8784 30.6318ZM52.4301 29.0234C53.6694 29.0234 54.5132 28.0303 54.5132 26.1582V25.5078C54.5132 23.7061 53.7221 22.6777 52.395 22.6777C51.0327 22.6777 50.1801 23.7852 50.1801 25.499V26.1582C50.1801 27.916 51.0415 29.0234 52.4301 29.0234ZM62.7971 30.6318C61.593 30.6318 60.6789 30.0605 60.1867 29.208H60.1164V33.585H58.1652V21.21H60.0637V22.5723H60.134C60.6437 21.6846 61.593 21.0869 62.841 21.0869C64.924 21.0869 66.4094 22.6602 66.4094 25.4375V26.2637C66.4094 29.0234 64.9416 30.6318 62.7971 30.6318ZM62.3488 29.0234C63.5881 29.0234 64.4318 28.0303 64.4318 26.1582V25.5078C64.4318 23.7061 63.6408 22.6777 62.3137 22.6777C60.9514 22.6777 60.0988 23.7852 60.0988 25.499V26.1582C60.0988 27.916 60.9601 29.0234 62.3488 29.0234ZM70.4528 27.1689H72.4039C72.4918 28.2061 73.4059 29.0938 75.1022 29.0938C76.6578 29.0938 77.5807 28.3643 77.5807 27.2305C77.5807 26.3164 76.9655 25.8242 75.6823 25.5166L73.7135 25.0244C72.1666 24.6641 70.778 23.7412 70.778 21.79C70.778 19.4961 72.7819 18.2393 75.111 18.2393C77.4401 18.2393 79.3825 19.4961 79.4264 21.7373H77.5104C77.4225 20.7178 76.6403 19.874 75.0846 19.874C73.7135 19.874 72.7819 20.5244 72.7819 21.6406C72.7819 22.4229 73.3268 22.9854 74.443 23.2402L76.403 23.7236C78.2047 24.1631 79.5758 25.0156 79.5758 27.0547C79.5758 29.4102 77.6686 30.7373 74.9528 30.7373C71.6129 30.7373 70.4967 28.7861 70.4528 27.1689ZM81.9535 21.21V18.9512H83.8695V21.21H85.68V22.7744H83.8695V27.7314C83.8695 28.7422 84.2474 29.0234 85.2933 29.0234C85.4603 29.0234 85.6185 29.0234 85.7328 29.0059V30.5C85.5746 30.5264 85.2054 30.5615 84.8099 30.5615C82.5511 30.5615 81.9271 29.7529 81.9271 27.8896V22.7744H80.6439V21.21H81.9535ZM90.9493 21.0518C93.6212 21.0518 95.0714 22.9326 95.0714 25.4639V26.2109C95.0714 28.8301 93.63 30.6582 90.9493 30.6582C88.2686 30.6582 86.8096 28.8301 86.8096 26.2109V25.4639C86.8096 22.9414 88.2774 21.0518 90.9493 21.0518ZM90.9493 22.6162C89.4991 22.6162 88.7784 23.8027 88.7784 25.4902V26.2021C88.7784 27.8633 89.4903 29.085 90.9493 29.085C92.4083 29.085 93.1114 27.8721 93.1114 26.2021V25.4902C93.1114 23.7939 92.3995 22.6162 90.9493 22.6162ZM96.7195 30.5V21.21H98.6707V22.4316H98.741C98.9783 21.8516 99.6726 21.0781 100.965 21.0781C101.22 21.0781 101.439 21.0957 101.624 21.1309V22.8535C101.457 22.8096 101.114 22.7832 100.789 22.7832C99.2244 22.7832 98.6971 23.75 98.6971 24.998V30.5H96.7195ZM106.357 30.6582C103.87 30.6582 102.288 29.0146 102.288 26.2637V25.3232C102.288 22.7305 103.834 21.0518 106.278 21.0518C108.756 21.0518 110.25 22.792 110.25 25.4111V26.2988H104.212V26.5186C104.212 28.083 105.056 29.1201 106.383 29.1201C107.376 29.1201 108.053 28.6279 108.291 27.8281H110.145C109.864 29.3311 108.651 30.6582 106.357 30.6582ZM104.212 24.9365H108.343V24.9189C108.343 23.6006 107.526 22.5635 106.287 22.5635C105.03 22.5635 104.212 23.6006 104.212 24.9189V24.9365Z" fill="white"/>
</svg>
