<svg width="121" height="40" viewBox="0 0 121 40" fill="none" xmlns="http://www.w3.org/2000/svg">
<rect x="1.11401" y="0.5" width="119" height="39" rx="5.5" fill="black"/>
<rect x="1.11401" y="0.5" width="119" height="39" rx="5.5" stroke="#A6A6A6"/>
<path d="M18.4188 19.4617L8.70361 30.0059C8.70453 30.0078 8.70453 30.0106 8.70544 30.0125C9.00382 31.1574 10.0258 32 11.2394 32C11.7248 32 12.1802 31.8656 12.5707 31.6305L12.6017 31.6118L23.537 25.1593L18.4188 19.4617Z" fill="#EA4335"/>
<path d="M28.2472 17.6662L28.2381 17.6597L23.5169 14.8612L18.198 19.7013L23.536 25.1582L28.2317 22.3878C29.0547 21.9324 29.6141 21.045 29.6141 20.0223C29.6141 19.0052 29.0629 18.1225 28.2472 17.6662Z" fill="#FBBC04"/>
<path d="M8.70344 9.99325C8.64504 10.2135 8.61401 10.4449 8.61401 10.6838V29.3163C8.61401 29.5552 8.64504 29.7866 8.70435 30.0059L18.7526 19.7313L8.70344 9.99325Z" fill="#4285F4"/>
<path d="M18.4907 20L23.5185 14.8594L12.596 8.3836C12.1991 8.14005 11.7356 8.00009 11.2401 8.00009C10.0265 8.00009 9.00266 8.84456 8.70428 9.99043C8.70428 9.99136 8.70337 9.9923 8.70337 9.99323L18.4907 20Z" fill="#34A853"/>
<path d="M44.224 11.71C44.224 12.71 43.9273 13.5067 43.334 14.1C42.6673 14.8067 41.7907 15.16 40.704 15.16C39.664 15.16 38.784 14.8 38.064 14.08C37.344 13.36 36.984 12.4733 36.984 11.42C36.984 10.3667 37.344 9.48 38.064 8.76C38.784 8.04 39.664 7.68 40.704 7.68C41.2307 7.68 41.7273 7.77333 42.194 7.96C42.6607 8.14667 43.044 8.41 43.344 8.75L42.684 9.41C42.464 9.14333 42.1773 8.93667 41.824 8.79C41.4773 8.63667 41.104 8.56 40.704 8.56C39.924 8.56 39.264 8.83 38.724 9.37C38.1907 9.91667 37.924 10.6 37.924 11.42C37.924 12.24 38.1907 12.9233 38.724 13.47C39.264 14.01 39.924 14.28 40.704 14.28C41.4173 14.28 42.0107 14.08 42.484 13.68C42.9573 13.28 43.2307 12.73 43.304 12.03H40.704V11.17H44.174C44.2073 11.3567 44.224 11.5367 44.224 11.71ZM49.5218 7.84V8.72H46.2618V10.99H49.2018V11.85H46.2618V14.12H49.5218V15H45.3418V7.84H49.5218ZM53.2017 8.72V15H52.2817V8.72H50.2817V7.84H55.2017V8.72H53.2017ZM59.2794 15H58.3594V7.84H59.2794V15ZM63.1627 8.72V15H62.2427V8.72H60.2427V7.84H65.1627V8.72H63.1627ZM75.135 11.42C75.135 12.48 74.7817 13.3667 74.075 14.08C73.3617 14.8 72.4884 15.16 71.455 15.16C70.415 15.16 69.5417 14.8 68.835 14.08C68.1284 13.3667 67.775 12.48 67.775 11.42C67.775 10.36 68.1284 9.47333 68.835 8.76C69.5417 8.04 70.415 7.68 71.455 7.68C72.495 7.68 73.3684 8.04333 74.075 8.77C74.7817 9.48333 75.135 10.3667 75.135 11.42ZM68.715 11.42C68.715 12.2467 68.975 12.93 69.495 13.47C70.0217 14.01 70.675 14.28 71.455 14.28C72.235 14.28 72.885 14.01 73.405 13.47C73.9317 12.9367 74.195 12.2533 74.195 11.42C74.195 10.5867 73.9317 9.90333 73.405 9.37C72.885 8.83 72.235 8.56 71.455 8.56C70.675 8.56 70.0217 8.83 69.495 9.37C68.975 9.91 68.715 10.5933 68.715 11.42ZM77.1407 15H76.2207V7.84H77.3407L80.8207 13.41H80.8607L80.8207 12.03V7.84H81.7407V15H80.7807L77.1407 9.16H77.1007L77.1407 10.54V15Z" fill="white"/>
<path d="M94.1321 32.4097H95.7609V21.3981H94.1321V32.4097ZM108.803 25.3646L106.936 30.1388H106.88L104.942 25.3646H103.187L106.093 32.0371L104.437 35.749H106.135L110.614 25.3646H108.803ZM99.5659 31.1588C99.0317 31.1588 98.288 30.8902 98.288 30.2234C98.288 29.3742 99.2141 29.0483 100.015 29.0483C100.73 29.0483 101.068 29.2042 101.503 29.4165C101.376 30.4365 100.506 31.1588 99.5659 31.1588ZM99.7623 25.1241C98.583 25.1241 97.361 25.6482 96.8564 26.8101L98.3019 27.4188C98.6109 26.8101 99.1862 26.611 99.7902 26.611C100.633 26.611 101.489 27.121 101.503 28.0283V28.1411C101.208 27.971 100.577 27.7165 99.8042 27.7165C98.2461 27.7165 96.6591 28.5806 96.6591 30.1952C96.6591 31.6689 97.9371 32.6184 99.3686 32.6184C100.464 32.6184 101.068 32.1225 101.447 31.5411H101.503V32.3912H103.075V28.1692C103.075 26.2146 101.629 25.1241 99.7623 25.1241ZM89.6961 26.7053H87.3795V22.9308H89.6961C90.9138 22.9308 91.6051 23.9482 91.6051 24.8176C91.6051 25.6711 90.9138 26.7053 89.6961 26.7053ZM89.6542 21.3981H85.7515V32.4097H87.3795V28.2379H89.6542C91.4594 28.2379 93.2339 26.9184 93.2339 24.8176C93.2339 22.7168 91.4594 21.3981 89.6542 21.3981ZM68.3723 31.1606C67.2472 31.1606 66.3053 30.2102 66.3053 28.9047C66.3053 27.5852 67.2472 26.6198 68.3723 26.6198C69.4835 26.6198 70.3546 27.5852 70.3546 28.9047C70.3546 30.2102 69.4835 31.1606 68.3723 31.1606ZM70.2429 25.9812H70.1862C69.8204 25.5417 69.1178 25.1444 68.2318 25.1444C66.3752 25.1444 64.6739 26.7898 64.6739 28.9047C64.6739 31.0047 66.3752 32.6369 68.2318 32.6369C69.1178 32.6369 69.8204 32.2396 70.1862 31.7851H70.2429V32.3251C70.2429 33.7582 69.4835 34.5246 68.2597 34.5246C67.2611 34.5246 66.6423 33.8005 66.3891 33.1901L64.9689 33.7864C65.3766 34.78 66.4598 36 68.2597 36C70.1722 36 71.7897 34.8646 71.7897 32.0978V25.3708H70.2429V25.9812ZM72.9148 32.4097H74.5463V21.3973H72.9148V32.4097ZM76.9502 28.777C76.9083 27.3298 78.0614 26.5916 78.8906 26.5916C79.5383 26.5916 80.0865 26.9176 80.2689 27.3862L76.9502 28.777ZM82.013 27.528C81.7039 26.6912 80.7612 25.1444 78.8348 25.1444C76.9223 25.1444 75.3336 26.6621 75.3336 28.8907C75.3336 30.9906 76.9083 32.6369 79.0172 32.6369C80.7193 32.6369 81.7039 31.5869 82.1116 30.9765L80.8459 30.1247C80.4243 30.7493 79.8473 31.1606 79.0172 31.1606C78.188 31.1606 77.597 30.7774 77.2173 30.0261L82.1814 27.9534L82.013 27.528ZM42.4641 26.2939V27.883H46.2324C46.1198 28.777 45.8247 29.4297 45.3752 29.8834C44.8261 30.4374 43.9681 31.0479 42.4641 31.0479C40.1431 31.0479 38.3292 29.1602 38.3292 26.8189C38.3292 24.4767 40.1431 22.5899 42.4641 22.5899C43.7158 22.5899 44.6298 23.0867 45.3045 23.7254L46.4157 22.604C45.473 21.6959 44.2221 21 42.4641 21C39.2859 21 36.614 23.6117 36.614 26.8189C36.614 30.0261 39.2859 32.6369 42.4641 32.6369C44.1793 32.6369 45.473 32.0688 46.4855 31.0047C47.5269 29.9547 47.8498 28.4793 47.8498 27.2866C47.8498 26.9176 47.8219 26.5775 47.7652 26.2939H42.4641ZM52.1348 31.1606C51.0097 31.1606 50.039 30.2243 50.039 28.8907C50.039 27.5421 51.0097 26.6198 52.1348 26.6198C53.2591 26.6198 54.2298 27.5421 54.2298 28.8907C54.2298 30.2243 53.2591 31.1606 52.1348 31.1606ZM52.1348 25.1444C50.0809 25.1444 48.4076 26.7194 48.4076 28.8907C48.4076 31.0479 50.0809 32.6369 52.1348 32.6369C54.1879 32.6369 55.8612 31.0479 55.8612 28.8907C55.8612 26.7194 54.1879 25.1444 52.1348 25.1444ZM60.2641 31.1606C59.1389 31.1606 58.1683 30.2243 58.1683 28.8907C58.1683 27.5421 59.1389 26.6198 60.2641 26.6198C61.3892 26.6198 62.359 27.5421 62.359 28.8907C62.359 30.2243 61.3892 31.1606 60.2641 31.1606ZM60.2641 25.1444C58.211 25.1444 56.5377 26.7194 56.5377 28.8907C56.5377 31.0479 58.211 32.6369 60.2641 32.6369C62.3171 32.6369 63.9904 31.0479 63.9904 28.8907C63.9904 26.7194 62.3171 25.1444 60.2641 25.1444Z" fill="white"/>
</svg>
